<svg data-v-fde0c5aa="" xmlns="http://www.w3.org/2000/svg" viewBox="0 0 300 300" class="iconLeftSlogan"><!----><defs data-v-fde0c5aa=""><!----></defs><rect data-v-fde0c5aa="" fill="transparent" x="0" y="0" width="px" height="300px" class="logo-background-square"></rect><defs data-v-fde0c5aa=""><!----></defs><g data-v-fde0c5aa="" id="4547a3db-0db8-43ff-9cdf-e50e8354745d" fill="#000000" transform="matrix(2.0760118993420034,0,0,2.0760118993420034,103.42718759031696,119.6447036833227)"><path d="M13.52 3.92L11.93 3.92L9.97 12.35L8.02 4.06L5.91 4.06L3.91 12.31L2.06 3.92L0.36 3.92L2.86 13.58L4.90 13.58L6.93 5.35L8.86 13.58L10.89 13.58ZM18.61 13.58L20.13 13.58C20.02 12.75 19.99 12.25 19.99 11.69L19.99 9.07C19.99 8.72 19.98 8.33 19.95 8.02C19.82 6.76 19.07 5.95 17.15 5.95C15.46 5.95 14.24 6.87 14.14 8.50L15.68 8.50C15.76 7.57 16.23 7.07 17.12 7.07C18.00 7.07 18.38 7.49 18.42 8.09C18.45 8.37 18.45 8.62 18.45 8.90L18.45 9.09L17.98 9.09C15.16 9.09 13.85 9.98 13.85 11.63C13.85 13.02 14.92 13.78 16.24 13.78C16.94 13.78 17.58 13.65 18.09 13.30L18.47 12.50ZM16.80 12.66C15.99 12.66 15.47 12.29 15.47 11.51C15.47 10.37 16.65 9.97 18.45 10.11L18.45 10.79C18.45 12.00 17.77 12.66 16.80 12.66ZM24.35 5.95C22.69 5.95 21.60 6.79 21.60 8.18C21.60 9.48 22.61 10.05 23.97 10.40C25.23 10.74 25.73 11.09 25.73 11.73C25.73 12.38 25.16 12.68 24.44 12.68C23.67 12.68 23.04 12.31 22.86 11.35L21.31 11.35C21.52 13.03 22.74 13.78 24.39 13.78C26.01 13.78 27.29 13.06 27.29 11.62C27.29 10.30 26.43 9.66 24.81 9.24C23.70 8.95 23.16 8.67 23.16 7.99C23.16 7.43 23.51 7.03 24.23 7.03C24.99 7.03 25.45 7.49 25.61 8.27L27.17 8.27C27.01 6.92 26.05 5.95 24.35 5.95ZM32.66 5.95C31.91 5.95 31.14 6.16 30.72 6.51L30.16 7.31L30.16 6.15L28.62 6.15L28.62 16.32L30.16 16.32L30.16 12.57L30.65 13.31C31.02 13.61 31.79 13.78 32.41 13.78C34.33 13.78 36.01 12.46 36.01 9.73C36.01 7.56 34.79 5.95 32.66 5.95ZM32.23 12.66C31.25 12.66 30.16 11.98 30.16 10.16L30.16 9.79C30.16 7.80 31.15 7.07 32.30 7.07C33.64 7.07 34.38 8.26 34.38 9.87C34.38 11.72 33.46 12.66 32.23 12.66ZM41.66 13.58L43.19 13.58C43.08 12.75 43.05 12.25 43.05 11.69L43.05 9.07C43.05 8.72 43.04 8.33 43.01 8.02C42.88 6.76 42.13 5.95 40.21 5.95C38.51 5.95 37.30 6.87 37.20 8.50L38.74 8.50C38.82 7.57 39.28 7.07 40.18 7.07C41.06 7.07 41.44 7.49 41.48 8.09C41.51 8.37 41.51 8.62 41.51 8.90L41.51 9.09L41.03 9.09C38.22 9.09 36.90 9.98 36.90 11.63C36.90 13.02 37.98 13.78 39.30 13.78C40.00 13.78 40.64 13.65 41.15 13.30L41.52 12.50ZM39.86 12.66C39.05 12.66 38.53 12.29 38.53 11.51C38.53 10.37 39.70 9.97 41.51 10.11L41.51 10.79C41.51 12.00 40.82 12.66 39.86 12.66ZM51.84 3.29L50.30 3.29L50.30 7.15L49.81 6.41C49.43 6.12 48.66 5.95 48.05 5.95C46.13 5.95 44.45 7.27 44.45 9.98C44.45 12.17 45.67 13.78 47.80 13.78C48.55 13.78 49.32 13.55 49.74 13.22L50.30 12.40L50.30 13.58L51.84 13.58ZM48.15 12.66C46.82 12.66 46.07 11.47 46.07 9.86C46.07 8.01 47.00 7.07 48.22 7.07C49.21 7.07 50.30 7.74 50.30 9.55L50.30 9.94C50.30 11.93 49.31 12.66 48.15 12.66ZM58.10 13.58L59.63 13.58C59.51 12.75 59.49 12.25 59.49 11.69L59.49 9.07C59.49 8.72 59.47 8.33 59.44 8.02C59.32 6.76 58.56 5.95 56.64 5.95C54.95 5.95 53.73 6.87 53.63 8.50L55.17 8.50C55.26 7.57 55.72 7.07 56.62 7.07C57.50 7.07 57.88 7.49 57.92 8.09C57.95 8.37 57.95 8.62 57.95 8.90L57.95 9.09L57.47 9.09C54.66 9.09 53.34 9.98 53.34 11.63C53.34 13.02 54.42 13.78 55.73 13.78C56.43 13.78 57.08 13.65 57.58 13.30L57.96 12.50ZM56.29 12.66C55.48 12.66 54.96 12.29 54.96 11.51C54.96 10.37 56.14 9.97 57.95 10.11L57.95 10.79C57.95 12.00 57.26 12.66 56.29 12.66ZM69.80 10.39L70.85 13.58L72.52 13.58L69.15 3.92L67.16 3.92L63.69 13.58L65.32 13.58L66.37 10.39ZM66.78 9.17L68.12 5.19L69.40 9.17ZM75.42 13.58L75.42 3.92L73.88 3.92L73.88 13.58Z"></path></g><defs data-v-fde0c5aa=""><linearGradient data-v-fde0c5aa="" gradientTransform="rotate(25)" id="80b78e69-28a4-4fa1-a321-9d3e622498e9" x1="0%" y1="0%" x2="100%" y2="0%"><stop data-v-fde0c5aa="" offset="0%" stop-color="#41E296" stop-opacity="1"></stop><stop data-v-fde0c5aa="" offset="100%" stop-color="#00C4EE" stop-opacity="1"></stop></linearGradient></defs><g data-v-fde0c5aa="" id="47b8e576-4da2-4ed7-9247-492343540bdc" stroke="none" fill="url(#80b78e69-28a4-4fa1-a321-9d3e622498e9)" transform="matrix(1.5992047469930522,0,0,1.5992047469930522,40,124.41272404811116)"><path d="M15.965 16.258l.707-.707 10.39 10.39-.707.707z"></path><path d="M4.935 26.357L26.018 5.274l.707.707L5.642 27.065z"></path><path d="M31 1v4.194h-4.194V1H31m1-1h-6.194v6.194H32V0zM31 26.806V31h-4.194v-4.194H31m1-1h-6.194V32H32v-6.194zM5.194 26.806V31H1v-4.194h4.194m1-1H0V32h6.194v-6.194z"></path></g><defs data-v-fde0c5aa=""><!----></defs><g data-v-fde0c5aa="" id="186a1416-458f-46b1-add6-6d1bc7908e9e" fill="#000000" transform="matrix(0.3317552566456793,0,0,0.3317552566456793,104.06175511533169,162.267864837004)"><path d="M8.83 3.92L8.76 3.92L8.20 3.92L8.09 3.92L6.69 3.92L6.69 4.19C6.69 4.34 6.79 4.42 6.97 4.44L7.08 4.44C7.14 4.44 7.21 4.45 7.32 4.45C7.43 4.45 7.56 4.47 7.70 4.47L5.11 8.64C5.04 8.75 4.98 8.85 4.94 8.95C4.90 9.04 4.86 9.16 4.82 9.25C4.77 9.16 4.73 9.04 4.69 8.95C4.65 8.85 4.59 8.75 4.52 8.64L1.92 4.47C2.06 4.47 2.18 4.45 2.30 4.45C2.41 4.45 2.49 4.44 2.55 4.44L2.65 4.44C2.83 4.42 2.93 4.34 2.93 4.19L2.93 3.92L1.53 3.92L1.41 3.92L0.85 3.92L0.78 3.92L0.34 3.92L0.34 4.19C0.34 4.34 0.43 4.42 0.62 4.44C0.85 4.45 1.04 4.47 1.13 4.47L4.45 9.73L4.45 13.26C4.28 13.26 4.13 13.27 3.99 13.27C3.85 13.27 3.75 13.29 3.68 13.29L3.56 13.29C3.37 13.30 3.28 13.38 3.28 13.54L3.28 13.82L4.45 13.82L5.17 13.82L6.34 13.82L6.34 13.54C6.34 13.38 6.26 13.30 6.08 13.29L5.94 13.29C5.87 13.29 5.77 13.27 5.63 13.27C5.49 13.27 5.33 13.26 5.17 13.26L5.17 9.73L8.48 4.47C8.60 4.47 8.76 4.45 9.00 4.44C9.18 4.42 9.28 4.34 9.28 4.19L9.28 3.92ZM26.59 8.86C26.59 8.11 26.46 7.41 26.24 6.79C26.01 6.17 25.69 5.64 25.27 5.19C24.85 4.75 24.36 4.40 23.79 4.16C23.21 3.92 22.55 3.79 21.85 3.79C21.15 3.79 20.52 3.92 19.95 4.16C19.38 4.40 18.87 4.75 18.45 5.19C18.03 5.64 17.71 6.17 17.49 6.79C17.26 7.41 17.14 8.11 17.14 8.86C17.14 9.63 17.26 10.33 17.49 10.95C17.71 11.56 18.03 12.10 18.45 12.54C18.87 12.99 19.38 13.33 19.95 13.57C20.52 13.80 21.15 13.93 21.85 13.93C22.55 13.93 23.21 13.80 23.79 13.57C24.36 13.33 24.85 12.99 25.27 12.54C25.69 12.10 26.01 11.56 26.24 10.95C26.46 10.33 26.59 9.63 26.59 8.86ZM25.83 8.86C25.83 9.56 25.75 10.18 25.55 10.72C25.35 11.27 25.09 11.75 24.74 12.12C24.39 12.50 23.97 12.81 23.48 13.01C22.99 13.20 22.46 13.30 21.85 13.30C21.27 13.30 20.73 13.20 20.24 13.01C19.75 12.81 19.33 12.50 18.98 12.12C18.63 11.75 18.35 11.27 18.16 10.72C17.96 10.18 17.88 9.56 17.88 8.86C17.88 8.18 17.96 7.55 18.16 7.00C18.35 6.45 18.63 5.98 18.98 5.60C19.33 5.22 19.75 4.91 20.24 4.72C20.73 4.52 21.27 4.41 21.85 4.41C22.46 4.41 22.99 4.52 23.48 4.72C23.97 4.91 24.39 5.22 24.74 5.60C25.09 5.98 25.35 6.45 25.55 7.00C25.75 7.55 25.83 8.18 25.83 8.86ZM42.83 3.92L42.11 3.92L40.75 3.92L40.75 4.19C40.75 4.34 40.85 4.42 41.03 4.44L41.20 4.44C41.30 4.44 41.44 4.45 41.61 4.45C41.78 4.45 41.94 4.47 42.11 4.47L42.11 10.04C42.11 10.50 42.04 10.92 41.90 11.33C41.76 11.73 41.57 12.08 41.30 12.38C41.03 12.67 40.73 12.89 40.35 13.06C39.97 13.23 39.55 13.31 39.07 13.31C38.60 13.31 38.16 13.23 37.79 13.06C37.41 12.89 37.09 12.66 36.83 12.36C36.57 12.07 36.39 11.72 36.25 11.33C36.11 10.93 36.04 10.50 36.04 10.04L36.04 4.47C36.20 4.47 36.37 4.45 36.54 4.45C36.71 4.45 36.85 4.44 36.95 4.44L37.11 4.44C37.30 4.42 37.39 4.34 37.39 4.19L37.39 3.92L36.04 3.92L35.32 3.92L34.15 3.92L34.15 4.19C34.15 4.34 34.23 4.42 34.41 4.44L34.55 4.44C34.62 4.44 34.72 4.45 34.86 4.45C35 4.45 35.15 4.47 35.32 4.47L35.32 10.04C35.32 10.58 35.41 11.09 35.57 11.56C35.74 12.04 35.99 12.46 36.32 12.81C36.64 13.16 37.04 13.44 37.51 13.64C37.97 13.83 38.50 13.93 39.07 13.93C39.65 13.93 40.17 13.83 40.63 13.64C41.09 13.44 41.50 13.16 41.82 12.81C42.14 12.46 42.39 12.04 42.56 11.56C42.73 11.09 42.83 10.58 42.83 10.04L42.83 4.47C42.99 4.47 43.13 4.45 43.27 4.45C43.41 4.45 43.53 4.44 43.60 4.44L43.72 4.44C43.90 4.42 44.00 4.34 44.00 4.19L44.00 3.92ZM60.02 13.29L59.92 13.29L59.74 13.29C59.65 13.29 59.57 13.27 59.49 13.27L56.52 9.53C56.43 9.42 56.32 9.32 56.21 9.25C56.64 9.21 57.04 9.11 57.39 8.96C57.74 8.81 58.02 8.61 58.27 8.37C58.51 8.13 58.70 7.85 58.83 7.55C58.95 7.24 59.02 6.89 59.02 6.51C59.02 5.66 58.74 5.03 58.18 4.58C57.62 4.14 56.77 3.92 55.62 3.92L53.21 3.92L52.04 3.92L52.04 4.19C52.04 4.34 52.12 4.42 52.30 4.44L52.44 4.44C52.51 4.44 52.61 4.45 52.75 4.45C52.89 4.45 53.05 4.47 53.21 4.47L53.21 13.26C53.05 13.26 52.89 13.27 52.75 13.27C52.61 13.27 52.51 13.29 52.44 13.29L52.30 13.29C52.12 13.30 52.02 13.38 52.02 13.54L52.02 13.82L53.21 13.82L53.93 13.82L55.10 13.82L55.10 13.54C55.10 13.38 55.01 13.30 54.82 13.29L54.68 13.29C54.61 13.29 54.52 13.27 54.38 13.27C54.24 13.27 54.10 13.26 53.93 13.26L53.93 9.34L55.10 9.34C55.30 9.34 55.44 9.35 55.52 9.39C55.61 9.44 55.69 9.52 55.78 9.62L58.95 13.64C59.01 13.71 59.05 13.75 59.11 13.78C59.16 13.80 59.23 13.82 59.30 13.82L59.37 13.82L59.92 13.82L60.28 13.82L60.28 13.54C60.28 13.38 60.20 13.30 60.02 13.29ZM55.52 8.81L53.93 8.81L53.93 4.48L55.62 4.48C56.50 4.48 57.18 4.66 57.64 5.00C58.10 5.33 58.32 5.87 58.32 6.57C58.32 6.92 58.27 7.21 58.14 7.49C58.02 7.77 57.82 7.99 57.58 8.19C57.34 8.39 57.05 8.55 56.70 8.65C56.35 8.75 55.96 8.81 55.52 8.81ZM85.97 9.52C85.55 9.11 84.95 8.86 84.17 8.75C84.49 8.67 84.77 8.55 85.02 8.40C85.27 8.25 85.50 8.08 85.67 7.87C85.83 7.66 85.97 7.43 86.06 7.20C86.14 6.96 86.20 6.71 86.20 6.44C86.20 6.05 86.11 5.68 85.99 5.38C85.86 5.07 85.65 4.80 85.39 4.58C85.12 4.37 84.78 4.20 84.36 4.09C83.94 3.98 83.45 3.92 82.89 3.92L80.05 3.92L78.86 3.92L78.86 4.19C78.86 4.34 78.96 4.42 79.14 4.44L79.28 4.44C79.35 4.44 79.45 4.45 79.59 4.45C79.73 4.45 79.88 4.47 80.05 4.47L80.05 13.26C79.88 13.26 79.73 13.27 79.59 13.27C79.45 13.27 79.35 13.29 79.28 13.29L79.14 13.29C78.96 13.30 78.88 13.38 78.88 13.54L78.88 13.82L80.05 13.82L83.26 13.82C83.79 13.82 84.25 13.76 84.67 13.64C85.09 13.51 85.44 13.34 85.72 13.10C86.00 12.87 86.23 12.59 86.38 12.25C86.53 11.91 86.60 11.54 86.60 11.12C86.60 10.46 86.39 9.93 85.97 9.52ZM80.77 4.48L82.89 4.48C83.78 4.48 84.43 4.66 84.85 5.00C85.27 5.35 85.48 5.84 85.48 6.51C85.48 6.76 85.44 7.03 85.34 7.27C85.25 7.50 85.09 7.71 84.88 7.91C84.67 8.11 84.41 8.26 84.08 8.37C83.76 8.48 83.37 8.55 82.91 8.55L80.77 8.55ZM85.22 12.68C84.77 13.06 84.11 13.24 83.24 13.24L80.77 13.24L80.77 9.07L83.26 9.07C83.68 9.07 84.04 9.11 84.36 9.21C84.69 9.31 84.97 9.45 85.19 9.62C85.41 9.80 85.58 10.00 85.71 10.25C85.82 10.50 85.89 10.79 85.89 11.10C85.89 11.79 85.67 12.31 85.22 12.68ZM95.98 3.92L94.79 3.92L94.79 4.19C94.79 4.34 94.89 4.42 95.07 4.44L95.21 4.44C95.28 4.44 95.38 4.45 95.52 4.45C95.66 4.45 95.82 4.47 95.98 4.47L95.98 13.26C95.82 13.26 95.66 13.27 95.52 13.27C95.38 13.27 95.28 13.29 95.21 13.29L95.07 13.29C94.89 13.30 94.81 13.38 94.81 13.54L94.81 13.82L95.98 13.82L101.92 13.82L101.92 13.22L101.92 11.76L101.57 11.76C101.37 11.76 101.29 11.89 101.28 12.11C101.28 12.14 101.26 12.19 101.26 12.29C101.26 12.39 101.26 12.53 101.25 12.74C101.23 12.95 101.22 13.09 101.22 13.22L96.70 13.22L96.70 9.09L100.65 9.09L100.65 8.51L96.70 8.51L96.70 4.51L101.22 4.51C101.25 5.12 101.28 5.50 101.28 5.63C101.29 5.85 101.37 5.96 101.57 5.96L101.92 5.96L101.92 4.51L101.92 3.92ZM116.23 9.91C116.09 9.65 115.89 9.39 115.65 9.21C115.42 9.03 115.16 8.88 114.87 8.75C114.58 8.62 114.25 8.51 113.95 8.41C113.64 8.32 113.33 8.20 113.04 8.11C112.74 7.99 112.48 7.87 112.24 7.71C112.00 7.56 111.82 7.38 111.68 7.15C111.54 6.93 111.45 6.65 111.45 6.31C111.45 6.06 111.51 5.82 111.61 5.59C111.71 5.35 111.85 5.15 112.03 4.97C112.21 4.79 112.43 4.65 112.71 4.55C112.99 4.45 113.30 4.40 113.67 4.40C114.34 4.40 114.95 4.51 115.51 4.75C115.56 5.54 115.58 5.99 115.58 6.06C115.60 6.29 115.68 6.41 115.88 6.41L116.21 6.41L116.21 4.38C115.33 4.00 114.49 3.81 113.67 3.81C113.20 3.81 112.80 3.88 112.43 4.02C112.07 4.16 111.78 4.34 111.54 4.58C111.30 4.82 111.10 5.08 110.98 5.39C110.85 5.70 110.80 6.02 110.80 6.36C110.80 6.78 110.87 7.14 111.01 7.42C111.15 7.70 111.34 7.92 111.58 8.12C111.82 8.32 112.07 8.46 112.36 8.58C112.66 8.71 112.98 8.82 113.29 8.92C113.60 9.02 113.89 9.11 114.20 9.21C114.49 9.31 114.76 9.45 115.00 9.60C115.23 9.76 115.42 9.94 115.56 10.16C115.70 10.39 115.77 10.68 115.77 11.03C115.77 11.35 115.71 11.66 115.60 11.94C115.49 12.22 115.33 12.46 115.12 12.67C114.91 12.88 114.65 13.05 114.34 13.16C114.03 13.29 113.68 13.33 113.29 13.33C112.50 13.33 111.85 13.20 111.31 12.95C111.30 12.75 111.30 12.54 111.29 12.32C111.27 12.10 111.27 11.91 111.26 11.76C111.24 11.61 111.24 11.52 111.24 11.51C111.23 11.28 111.13 11.17 110.94 11.17L110.60 11.17L110.60 13.02L110.60 13.20L110.60 13.38C111.45 13.75 112.34 13.93 113.26 13.93C113.76 13.93 114.21 13.85 114.60 13.69C115.00 13.54 115.33 13.31 115.60 13.05C115.86 12.78 116.09 12.46 116.23 12.10C116.37 11.73 116.44 11.34 116.44 10.92C116.44 10.51 116.37 10.18 116.23 9.91ZM132.22 3.92L132.02 3.92L124.73 3.92L124.52 3.92L124.42 3.92L124.42 5.96L124.77 5.96C124.96 5.96 125.05 5.85 125.06 5.63C125.06 5.53 125.09 5.17 125.12 4.52L128.02 4.52L128.02 13.26C127.85 13.26 127.71 13.27 127.57 13.27C127.43 13.27 127.32 13.29 127.25 13.29L127.12 13.29C126.94 13.30 126.84 13.38 126.84 13.54L126.84 13.82L128.02 13.82L128.73 13.82L129.92 13.82L129.92 13.54C129.92 13.38 129.82 13.30 129.64 13.29L129.50 13.29C129.43 13.29 129.33 13.27 129.19 13.27C129.05 13.27 128.90 13.26 128.73 13.26L128.73 4.52L131.61 4.52C131.66 5.24 131.67 5.60 131.67 5.63C131.68 5.85 131.78 5.96 131.98 5.96L132.31 5.96L132.31 3.92ZM160.09 13.22L159.63 13.17L155.85 3.91L155.13 3.91L151.34 13.17L150.89 13.22C150.71 13.23 150.63 13.33 150.63 13.50L150.63 13.82L151.07 13.82L151.37 13.82L151.62 13.82L151.72 13.82L153.03 13.82L153.03 13.50C153.03 13.31 152.92 13.23 152.71 13.22C152.70 13.22 152.67 13.20 152.63 13.20C152.59 13.20 152.53 13.19 152.43 13.19C152.33 13.19 152.21 13.19 152.07 13.17L153.05 10.75L153.12 10.57L157.85 10.57L157.92 10.75L158.90 13.17C158.76 13.19 158.65 13.19 158.55 13.19C158.45 13.19 158.38 13.20 158.34 13.20C158.30 13.20 158.27 13.22 158.26 13.22C158.05 13.23 157.93 13.31 157.93 13.50L157.93 13.82L159.25 13.82L159.35 13.82L159.61 13.82L159.89 13.82L160.36 13.82L160.36 13.50C160.36 13.33 160.27 13.23 160.09 13.22ZM155.29 5.22C155.32 5.14 155.36 5.04 155.39 4.94C155.41 4.84 155.46 4.75 155.48 4.63C155.51 4.75 155.55 4.84 155.58 4.94C155.61 5.04 155.65 5.12 155.68 5.21L157.64 10.04L153.34 10.04ZM171.40 4.44C171.58 4.42 171.67 4.34 171.67 4.19L171.67 3.91L170.49 3.91L169.78 3.91L168.59 3.91L168.59 4.19C168.59 4.34 168.69 4.42 168.87 4.44L169.01 4.44C169.08 4.44 169.18 4.45 169.32 4.45C169.46 4.45 169.61 4.47 169.78 4.47L169.78 13.26C169.61 13.26 169.46 13.27 169.32 13.27C169.18 13.27 169.08 13.29 169.01 13.29L168.87 13.29C168.69 13.30 168.59 13.38 168.59 13.54L168.59 13.82L169.78 13.82L170.49 13.82L171.67 13.82L171.67 13.54C171.67 13.38 171.58 13.30 171.40 13.29L171.26 13.29C171.19 13.29 171.09 13.27 170.95 13.27C170.81 13.27 170.66 13.26 170.49 13.26L170.49 4.47C170.66 4.47 170.81 4.45 170.95 4.45C171.09 4.45 171.19 4.44 171.26 4.44ZM202.26 4.44C202.44 4.42 202.54 4.34 202.54 4.19L202.54 3.92L201.36 3.92L200.86 3.92C200.79 3.92 200.75 3.92 200.70 3.93C200.66 3.95 200.63 3.99 200.59 4.05L196.70 10.92C196.66 10.99 196.63 11.06 196.60 11.13C196.57 11.20 196.55 11.28 196.52 11.35C196.46 11.20 196.41 11.06 196.34 10.93L192.33 4.05C192.29 3.99 192.26 3.95 192.22 3.93C192.18 3.92 192.14 3.92 192.07 3.92L191.58 3.92L190.39 3.92L190.39 4.19C190.39 4.34 190.48 4.42 190.67 4.44L190.81 4.44C190.88 4.44 190.97 4.45 191.11 4.45C191.25 4.45 191.41 4.47 191.58 4.47L191.58 13.26C191.41 13.26 191.25 13.27 191.11 13.27C190.97 13.27 190.88 13.29 190.81 13.29L190.67 13.29C190.48 13.30 190.39 13.38 190.39 13.54L190.39 13.82L191.58 13.82L192.19 13.82L193.41 13.82L193.41 13.54C193.41 13.38 193.31 13.30 193.13 13.29L192.99 13.29C192.92 13.29 192.81 13.27 192.67 13.27C192.53 13.27 192.36 13.26 192.19 13.26L192.19 5.38C192.19 5.25 192.19 5.12 192.18 4.98L196.18 11.91C196.25 12.04 196.35 12.10 196.46 12.10L196.57 12.10C196.70 12.10 196.78 12.04 196.85 11.91L200.75 4.98C200.73 5.12 200.73 5.25 200.73 5.38L200.73 13.26C200.56 13.26 200.40 13.27 200.26 13.27C200.12 13.27 200.00 13.29 199.93 13.29L199.79 13.29C199.61 13.30 199.51 13.38 199.51 13.54L199.51 13.82L200.73 13.82L201.36 13.82L202.54 13.82L202.54 13.54C202.54 13.38 202.44 13.30 202.26 13.29L202.13 13.29C202.06 13.29 201.95 13.27 201.81 13.27C201.67 13.27 201.53 13.26 201.36 13.26L201.36 4.47C201.53 4.47 201.67 4.45 201.81 4.45C201.95 4.45 202.06 4.44 202.13 4.44ZM220.15 8.86C220.15 8.11 220.02 7.41 219.80 6.79C219.58 6.17 219.25 5.64 218.83 5.19C218.41 4.75 217.92 4.40 217.35 4.16C216.78 3.92 216.12 3.79 215.42 3.79C214.72 3.79 214.09 3.92 213.51 4.16C212.94 4.40 212.44 4.75 212.02 5.19C211.60 5.64 211.27 6.17 211.05 6.79C210.83 7.41 210.70 8.11 210.70 8.86C210.70 9.63 210.83 10.33 211.05 10.95C211.27 11.56 211.60 12.10 212.02 12.54C212.44 12.99 212.94 13.33 213.51 13.57C214.09 13.80 214.72 13.93 215.42 13.93C216.12 13.93 216.78 13.80 217.35 13.57C217.92 13.33 218.41 12.99 218.83 12.54C219.25 12.10 219.58 11.56 219.80 10.95C220.02 10.33 220.15 9.63 220.15 8.86ZM219.39 8.86C219.39 9.56 219.31 10.18 219.11 10.72C218.92 11.27 218.65 11.75 218.30 12.12C217.95 12.50 217.53 12.81 217.04 13.01C216.55 13.20 216.02 13.30 215.42 13.30C214.83 13.30 214.30 13.20 213.81 13.01C213.32 12.81 212.90 12.50 212.55 12.12C212.20 11.75 211.92 11.27 211.72 10.72C211.53 10.18 211.44 9.56 211.44 8.86C211.44 8.18 211.53 7.55 211.72 7.00C211.92 6.45 212.20 5.98 212.55 5.60C212.90 5.22 213.32 4.91 213.81 4.72C214.30 4.52 214.83 4.41 215.42 4.41C216.02 4.41 216.55 4.52 217.04 4.72C217.53 4.91 217.95 5.22 218.30 5.60C218.65 5.98 218.92 6.45 219.11 7.00C219.31 7.55 219.39 8.18 219.39 8.86ZM236.98 3.92L236.35 3.92L235.13 3.92L235.13 4.19C235.13 4.34 235.23 4.42 235.41 4.44L235.55 4.44C235.62 4.44 235.73 4.45 235.87 4.45C236.01 4.45 236.18 4.47 236.35 4.47L236.35 12.22C236.35 12.35 236.35 12.49 236.36 12.63L229.95 4.05C229.91 3.99 229.88 3.95 229.84 3.93C229.80 3.92 229.75 3.91 229.68 3.91L229.33 3.91L228.14 3.91L228.14 4.19C228.14 4.34 228.24 4.42 228.42 4.44L228.56 4.44C228.63 4.44 228.73 4.45 228.87 4.45C229.01 4.45 229.17 4.47 229.33 4.47L229.33 13.26C229.17 13.26 229.01 13.27 228.87 13.27C228.73 13.27 228.63 13.29 228.56 13.29L228.42 13.29C228.24 13.30 228.14 13.38 228.14 13.54L228.14 13.82L229.33 13.82L229.95 13.82L231.17 13.82L231.17 13.54C231.17 13.38 231.07 13.30 230.89 13.29L230.75 13.29C230.68 13.29 230.55 13.27 230.41 13.27C230.27 13.27 230.12 13.26 229.95 13.26L229.95 5.49C229.95 5.36 229.95 5.22 229.94 5.08L236.38 13.68C236.45 13.78 236.52 13.82 236.63 13.82L236.98 13.82L236.98 4.47C237.15 4.47 237.29 4.45 237.43 4.45C237.57 4.45 237.68 4.44 237.75 4.44L237.87 4.44C238.06 4.42 238.15 4.34 238.15 4.19L238.15 3.92ZM249.00 4.44C249.19 4.42 249.27 4.34 249.27 4.19L249.27 3.91L248.09 3.91L247.38 3.91L246.19 3.91L246.19 4.19C246.19 4.34 246.29 4.42 246.47 4.44L246.61 4.44C246.68 4.44 246.78 4.45 246.92 4.45C247.06 4.45 247.21 4.47 247.38 4.47L247.38 13.26C247.21 13.26 247.06 13.27 246.92 13.27C246.78 13.27 246.68 13.29 246.61 13.29L246.47 13.29C246.29 13.30 246.19 13.38 246.19 13.54L246.19 13.82L247.38 13.82L248.09 13.82L249.27 13.82L249.27 13.54C249.27 13.38 249.19 13.30 249.00 13.29L248.86 13.29C248.79 13.29 248.70 13.27 248.56 13.27C248.42 13.27 248.26 13.26 248.09 13.26L248.09 4.47C248.26 4.47 248.42 4.45 248.56 4.45C248.70 4.45 248.79 4.44 248.86 4.44ZM265.13 3.92L264.94 3.92L257.64 3.92L257.43 3.92L257.33 3.92L257.33 5.96L257.68 5.96C257.88 5.96 257.96 5.85 257.98 5.63C257.98 5.53 258.01 5.17 258.03 4.52L260.93 4.52L260.93 13.26C260.76 13.26 260.62 13.27 260.48 13.27C260.34 13.27 260.23 13.29 260.16 13.29L260.04 13.29C259.85 13.30 259.76 13.38 259.76 13.54L259.76 13.82L260.93 13.82L261.65 13.82L262.84 13.82L262.84 13.54C262.84 13.38 262.74 13.30 262.56 13.29L262.42 13.29C262.35 13.29 262.25 13.27 262.11 13.27C261.97 13.27 261.81 13.26 261.65 13.26L261.65 4.52L264.53 4.52C264.57 5.24 264.59 5.60 264.59 5.63C264.60 5.85 264.70 5.96 264.89 5.96L265.23 5.96L265.23 3.92ZM282.52 8.86C282.52 8.11 282.39 7.41 282.17 6.79C281.95 6.17 281.62 5.64 281.20 5.19C280.78 4.75 280.29 4.40 279.72 4.16C279.15 3.92 278.49 3.79 277.79 3.79C277.09 3.79 276.46 3.92 275.88 4.16C275.31 4.40 274.81 4.75 274.39 5.19C273.97 5.64 273.64 6.17 273.42 6.79C273.20 7.41 273.07 8.11 273.07 8.86C273.07 9.63 273.20 10.33 273.42 10.95C273.64 11.56 273.97 12.10 274.39 12.54C274.81 12.99 275.31 13.33 275.88 13.57C276.46 13.80 277.09 13.93 277.79 13.93C278.49 13.93 279.15 13.80 279.72 13.57C280.29 13.33 280.78 12.99 281.20 12.54C281.62 12.10 281.95 11.56 282.17 10.95C282.39 10.33 282.52 9.63 282.52 8.86ZM281.76 8.86C281.76 9.56 281.68 10.18 281.48 10.72C281.29 11.27 281.02 11.75 280.67 12.12C280.32 12.50 279.90 12.81 279.41 13.01C278.92 13.20 278.39 13.30 277.79 13.30C277.20 13.30 276.67 13.20 276.18 13.01C275.69 12.81 275.27 12.50 274.92 12.12C274.57 11.75 274.29 11.27 274.09 10.72C273.90 10.18 273.81 9.56 273.81 8.86C273.81 8.18 273.90 7.55 274.09 7.00C274.29 6.45 274.57 5.98 274.92 5.60C275.27 5.22 275.69 4.91 276.18 4.72C276.67 4.52 277.20 4.41 277.79 4.41C278.39 4.41 278.92 4.52 279.41 4.72C279.90 4.91 280.32 5.22 280.67 5.60C281.02 5.98 281.29 6.45 281.48 7.00C281.68 7.55 281.76 8.18 281.76 8.86ZM298.79 13.29L298.69 13.29L298.51 13.29C298.42 13.29 298.34 13.27 298.26 13.27L295.29 9.53C295.20 9.42 295.09 9.32 294.98 9.25C295.41 9.21 295.81 9.11 296.16 8.96C296.51 8.81 296.79 8.61 297.04 8.37C297.28 8.13 297.47 7.85 297.60 7.55C297.72 7.24 297.79 6.89 297.79 6.51C297.79 5.66 297.51 5.03 296.95 4.58C296.39 4.14 295.54 3.92 294.39 3.92L291.98 3.92L290.81 3.92L290.81 4.19C290.81 4.34 290.89 4.42 291.07 4.44L291.21 4.44C291.28 4.44 291.38 4.45 291.52 4.45C291.66 4.45 291.82 4.47 291.98 4.47L291.98 13.26C291.82 13.26 291.66 13.27 291.52 13.27C291.38 13.27 291.28 13.29 291.21 13.29L291.07 13.29C290.89 13.30 290.79 13.38 290.79 13.54L290.79 13.82L291.98 13.82L292.70 13.82L293.87 13.82L293.87 13.54C293.87 13.38 293.78 13.30 293.59 13.29L293.45 13.29C293.38 13.29 293.29 13.27 293.15 13.27C293.01 13.27 292.87 13.26 292.70 13.26L292.70 9.34L293.87 9.34C294.07 9.34 294.21 9.35 294.29 9.39C294.38 9.44 294.46 9.52 294.55 9.62L297.72 13.64C297.78 13.71 297.82 13.75 297.88 13.78C297.93 13.80 298.00 13.82 298.07 13.82L298.14 13.82L298.69 13.82L299.05 13.82L299.05 13.54C299.05 13.38 298.97 13.30 298.79 13.29ZM294.29 8.81L292.70 8.81L292.70 4.48L294.39 4.48C295.27 4.48 295.95 4.66 296.41 5.00C296.87 5.33 297.09 5.87 297.09 6.57C297.09 6.92 297.04 7.21 296.91 7.49C296.79 7.77 296.59 7.99 296.35 8.19C296.11 8.39 295.82 8.55 295.47 8.65C295.12 8.75 294.73 8.81 294.29 8.81ZM310.07 4.44C310.25 4.42 310.34 4.34 310.34 4.19L310.34 3.91L309.16 3.91L308.45 3.91L307.26 3.91L307.26 4.19C307.26 4.34 307.36 4.42 307.54 4.44L307.68 4.44C307.75 4.44 307.85 4.45 307.99 4.45C308.13 4.45 308.28 4.47 308.45 4.47L308.45 13.26C308.28 13.26 308.13 13.27 307.99 13.27C307.85 13.27 307.75 13.29 307.68 13.29L307.54 13.29C307.36 13.30 307.26 13.38 307.26 13.54L307.26 13.82L308.45 13.82L309.16 13.82L310.34 13.82L310.34 13.54C310.34 13.38 310.25 13.30 310.07 13.29L309.93 13.29C309.86 13.29 309.76 13.27 309.62 13.27C309.48 13.27 309.33 13.26 309.16 13.26L309.16 4.47C309.33 4.47 309.48 4.45 309.62 4.45C309.76 4.45 309.86 4.44 309.93 4.44ZM327.52 3.92L326.89 3.92L325.67 3.92L325.67 4.19C325.67 4.34 325.77 4.42 325.95 4.44L326.09 4.44C326.16 4.44 326.27 4.45 326.41 4.45C326.55 4.45 326.72 4.47 326.89 4.47L326.89 12.22C326.89 12.35 326.89 12.49 326.90 12.63L320.49 4.05C320.45 3.99 320.42 3.95 320.38 3.93C320.33 3.92 320.29 3.91 320.22 3.91L319.87 3.91L318.68 3.91L318.68 4.19C318.68 4.34 318.78 4.42 318.96 4.44L319.10 4.44C319.17 4.44 319.27 4.45 319.41 4.45C319.55 4.45 319.70 4.47 319.87 4.47L319.87 13.26C319.70 13.26 319.55 13.27 319.41 13.27C319.27 13.27 319.17 13.29 319.10 13.29L318.96 13.29C318.78 13.30 318.68 13.38 318.68 13.54L318.68 13.82L319.87 13.82L320.49 13.82L321.71 13.82L321.71 13.54C321.71 13.38 321.61 13.30 321.43 13.29L321.29 13.29C321.22 13.29 321.09 13.27 320.95 13.27C320.81 13.27 320.66 13.26 320.49 13.26L320.49 5.49C320.49 5.36 320.49 5.22 320.47 5.08L326.91 13.68C326.98 13.78 327.05 13.82 327.17 13.82L327.52 13.82L327.52 4.47C327.68 4.47 327.82 4.45 327.96 4.45C328.10 4.45 328.22 4.44 328.29 4.44L328.41 4.44C328.59 4.42 328.69 4.34 328.69 4.19L328.69 3.92ZM342.37 9.32L342.37 9.72C342.37 9.76 342.40 9.80 342.43 9.83C342.45 9.86 342.50 9.87 342.55 9.87L344.46 9.87L344.46 12.54C344.23 12.67 344.01 12.78 343.80 12.88C343.59 12.98 343.35 13.08 343.11 13.15C342.87 13.22 342.61 13.27 342.33 13.30C342.05 13.33 341.74 13.34 341.40 13.34C340.79 13.34 340.23 13.24 339.72 13.03C339.22 12.82 338.79 12.53 338.42 12.15C338.06 11.77 337.78 11.30 337.58 10.74C337.39 10.18 337.27 9.56 337.27 8.86C337.27 8.18 337.39 7.56 337.58 7.01C337.78 6.47 338.06 5.99 338.42 5.61C338.79 5.24 339.23 4.94 339.75 4.73C340.27 4.52 340.84 4.42 341.49 4.42C342.66 4.42 343.60 4.58 344.29 4.90C344.33 5.81 344.36 6.31 344.36 6.41C344.37 6.64 344.47 6.75 344.67 6.75L345.00 6.75L345.00 4.51C344.57 4.31 344.01 4.14 343.31 4.00C342.61 3.86 342.02 3.81 341.52 3.81C340.76 3.81 340.07 3.92 339.46 4.16C338.84 4.40 338.32 4.75 337.89 5.18C337.46 5.61 337.13 6.15 336.90 6.78C336.66 7.39 336.55 8.09 336.55 8.86C336.55 9.63 336.66 10.32 336.90 10.95C337.13 11.58 337.46 12.10 337.88 12.54C338.30 12.99 338.81 13.33 339.40 13.57C339.99 13.80 340.63 13.93 341.35 13.93C341.77 13.93 342.15 13.90 342.50 13.86C342.85 13.80 343.17 13.73 343.48 13.65C343.78 13.55 344.06 13.44 344.33 13.30C344.60 13.16 344.85 13.01 345.10 12.84L345.10 9.32ZM370.10 4.68C369.52 4.17 368.63 3.92 367.47 3.92L365.06 3.92L363.87 3.92L363.87 4.19C363.87 4.34 363.97 4.42 364.15 4.44L364.29 4.44C364.36 4.44 364.46 4.45 364.60 4.45C364.74 4.45 364.90 4.47 365.06 4.47L365.06 13.26C364.90 13.26 364.74 13.27 364.60 13.27C364.46 13.27 364.36 13.29 364.29 13.29L364.15 13.29C363.97 13.30 363.87 13.38 363.87 13.54L363.87 13.82L365.06 13.82L365.78 13.82L366.95 13.82L366.95 13.54C366.95 13.38 366.86 13.30 366.67 13.29L366.55 13.29C366.48 13.29 366.37 13.27 366.23 13.27C366.09 13.27 365.95 13.26 365.78 13.26L365.78 9.83L367.47 9.83C368.02 9.83 368.51 9.74 368.94 9.60C369.38 9.45 369.74 9.25 370.05 8.99C370.36 8.72 370.59 8.41 370.75 8.05C370.92 7.69 370.99 7.29 370.99 6.86C370.99 5.92 370.69 5.18 370.10 4.68ZM370.08 7.81C369.95 8.11 369.77 8.36 369.53 8.57C369.29 8.78 369.00 8.95 368.65 9.07C368.30 9.20 367.91 9.25 367.47 9.25L365.78 9.25L365.78 4.48L367.47 4.48C368.40 4.48 369.10 4.69 369.57 5.10C370.03 5.50 370.27 6.09 370.27 6.85C370.27 7.20 370.20 7.52 370.08 7.81ZM387.65 13.22L387.18 13.17L383.40 3.91L382.69 3.91L378.90 13.17L378.45 13.22C378.27 13.23 378.18 13.33 378.18 13.50L378.18 13.82L378.63 13.82L378.92 13.82L379.18 13.82L379.27 13.82L380.59 13.82L380.59 13.50C380.59 13.31 380.48 13.23 380.27 13.22C380.25 13.22 380.23 13.20 380.18 13.20C380.14 13.20 380.09 13.19 379.99 13.19C379.89 13.19 379.76 13.19 379.62 13.17L380.60 10.75L380.67 10.57L385.41 10.57L385.48 10.75L386.46 13.17C386.32 13.19 386.20 13.19 386.11 13.19C386.01 13.19 385.94 13.20 385.90 13.20C385.85 13.20 385.83 13.22 385.81 13.22C385.60 13.23 385.49 13.31 385.49 13.50L385.49 13.82L386.81 13.82L386.90 13.82L387.17 13.82L387.45 13.82L387.91 13.82L387.91 13.50C387.91 13.33 387.83 13.23 387.65 13.22ZM382.84 5.22C382.87 5.14 382.91 5.04 382.94 4.94C382.97 4.84 383.01 4.75 383.04 4.63C383.07 4.75 383.11 4.84 383.14 4.94C383.17 5.04 383.21 5.12 383.24 5.21L385.20 10.04L380.90 10.04ZM404.14 13.29L404.04 13.29L403.86 13.29C403.77 13.29 403.69 13.27 403.61 13.27L400.64 9.53C400.55 9.42 400.44 9.32 400.33 9.25C400.76 9.21 401.16 9.11 401.51 8.96C401.86 8.81 402.14 8.61 402.39 8.37C402.63 8.13 402.82 7.85 402.95 7.55C403.07 7.24 403.14 6.89 403.14 6.51C403.14 5.66 402.86 5.03 402.30 4.58C401.74 4.14 400.89 3.92 399.74 3.92L397.33 3.92L396.16 3.92L396.16 4.19C396.16 4.34 396.24 4.42 396.42 4.44L396.56 4.44C396.63 4.44 396.73 4.45 396.87 4.45C397.01 4.45 397.17 4.47 397.33 4.47L397.33 13.26C397.17 13.26 397.01 13.27 396.87 13.27C396.73 13.27 396.63 13.29 396.56 13.29L396.42 13.29C396.24 13.30 396.14 13.38 396.14 13.54L396.14 13.82L397.33 13.82L398.05 13.82L399.22 13.82L399.22 13.54C399.22 13.38 399.13 13.30 398.94 13.29L398.80 13.29C398.73 13.29 398.64 13.27 398.50 13.27C398.36 13.27 398.22 13.26 398.05 13.26L398.05 9.34L399.22 9.34C399.42 9.34 399.56 9.35 399.64 9.39C399.73 9.44 399.81 9.52 399.90 9.62L403.07 13.64C403.13 13.71 403.17 13.75 403.23 13.78C403.28 13.80 403.35 13.82 403.42 13.82L403.49 13.82L404.04 13.82L404.40 13.82L404.40 13.54C404.40 13.38 404.32 13.30 404.14 13.29ZM399.64 8.81L398.05 8.81L398.05 4.48L399.74 4.48C400.62 4.48 401.30 4.66 401.76 5.00C402.22 5.33 402.44 5.87 402.44 6.57C402.44 6.92 402.39 7.21 402.26 7.49C402.14 7.77 401.94 7.99 401.70 8.19C401.46 8.39 401.17 8.55 400.82 8.65C400.47 8.75 400.08 8.81 399.64 8.81ZM419.82 3.92L419.62 3.92L412.33 3.92L412.12 3.92L412.02 3.92L412.02 5.96L412.37 5.96C412.57 5.96 412.65 5.85 412.66 5.63C412.66 5.53 412.69 5.17 412.72 4.52L415.62 4.52L415.62 13.26C415.45 13.26 415.31 13.27 415.17 13.27C415.03 13.27 414.92 13.29 414.85 13.29L414.72 13.29C414.54 13.30 414.44 13.38 414.44 13.54L414.44 13.82L415.62 13.82L416.33 13.82L417.52 13.82L417.52 13.54C417.52 13.38 417.42 13.30 417.24 13.29L417.10 13.29C417.03 13.29 416.93 13.27 416.79 13.27C416.65 13.27 416.50 13.26 416.33 13.26L416.33 4.52L419.22 4.52C419.26 5.24 419.27 5.60 419.27 5.63C419.29 5.85 419.38 5.96 419.58 5.96L419.92 5.96L419.92 3.92ZM436.86 3.92L436.23 3.92L435.01 3.92L435.01 4.19C435.01 4.34 435.11 4.42 435.29 4.44L435.43 4.44C435.50 4.44 435.61 4.45 435.75 4.45C435.89 4.45 436.06 4.47 436.23 4.47L436.23 12.22C436.23 12.35 436.23 12.49 436.24 12.63L429.83 4.05C429.79 3.99 429.76 3.95 429.72 3.93C429.67 3.92 429.63 3.91 429.56 3.91L429.21 3.91L428.02 3.91L428.02 4.19C428.02 4.34 428.12 4.42 428.30 4.44L428.44 4.44C428.51 4.44 428.61 4.45 428.75 4.45C428.89 4.45 429.04 4.47 429.21 4.47L429.21 13.26C429.04 13.26 428.89 13.27 428.75 13.27C428.61 13.27 428.51 13.29 428.44 13.29L428.30 13.29C428.12 13.30 428.02 13.38 428.02 13.54L428.02 13.82L429.21 13.82L429.83 13.82L431.05 13.82L431.05 13.54C431.05 13.38 430.95 13.30 430.77 13.29L430.63 13.29C430.56 13.29 430.43 13.27 430.29 13.27C430.15 13.27 430.00 13.26 429.83 13.26L429.83 5.49C429.83 5.36 429.83 5.22 429.81 5.08L436.25 13.68C436.32 13.78 436.39 13.82 436.51 13.82L436.86 13.82L436.86 4.47C437.02 4.47 437.16 4.45 437.30 4.45C437.44 4.45 437.56 4.44 437.63 4.44L437.75 4.44C437.93 4.42 438.03 4.34 438.03 4.19L438.03 3.92ZM447.26 3.92L446.07 3.92L446.07 4.19C446.07 4.34 446.17 4.42 446.35 4.44L446.49 4.44C446.56 4.44 446.66 4.45 446.80 4.45C446.94 4.45 447.09 4.47 447.26 4.47L447.26 13.26C447.09 13.26 446.94 13.27 446.80 13.27C446.66 13.27 446.56 13.29 446.49 13.29L446.35 13.29C446.17 13.30 446.08 13.38 446.08 13.54L446.08 13.82L447.26 13.82L453.19 13.82L453.19 13.22L453.19 11.76L452.84 11.76C452.65 11.76 452.56 11.89 452.55 12.11C452.55 12.14 452.54 12.19 452.54 12.29C452.54 12.39 452.54 12.53 452.52 12.74C452.51 12.95 452.49 13.09 452.49 13.22L447.97 13.22L447.97 9.09L451.92 9.09L451.92 8.51L447.97 8.51L447.97 4.51L452.49 4.51C452.52 5.12 452.55 5.50 452.55 5.63C452.56 5.85 452.65 5.96 452.84 5.96L453.19 5.96L453.19 4.51L453.19 3.92ZM469.77 13.29L469.67 13.29L469.49 13.29C469.41 13.29 469.32 13.27 469.24 13.27L466.27 9.53C466.19 9.42 466.07 9.32 465.96 9.25C466.40 9.21 466.79 9.11 467.14 8.96C467.49 8.81 467.77 8.61 468.02 8.37C468.26 8.13 468.45 7.85 468.58 7.55C468.71 7.24 468.78 6.89 468.78 6.51C468.78 5.66 468.50 5.03 467.94 4.58C467.38 4.14 466.52 3.92 465.37 3.92L462.97 3.92L461.79 3.92L461.79 4.19C461.79 4.34 461.87 4.42 462.06 4.44L462.20 4.44C462.27 4.44 462.36 4.45 462.50 4.45C462.64 4.45 462.80 4.47 462.97 4.47L462.97 13.26C462.80 13.26 462.64 13.27 462.50 13.27C462.36 13.27 462.27 13.29 462.20 13.29L462.06 13.29C461.87 13.30 461.78 13.38 461.78 13.54L461.78 13.82L462.97 13.82L463.68 13.82L464.86 13.82L464.86 13.54C464.86 13.38 464.76 13.30 464.58 13.29L464.44 13.29C464.37 13.29 464.27 13.27 464.13 13.27C463.99 13.27 463.85 13.26 463.68 13.26L463.68 9.34L464.86 9.34C465.05 9.34 465.19 9.35 465.28 9.39C465.36 9.44 465.44 9.52 465.53 9.62L468.71 13.64C468.76 13.71 468.80 13.75 468.86 13.78C468.92 13.80 468.99 13.82 469.06 13.82L469.13 13.82L469.67 13.82L470.04 13.82L470.04 13.54C470.04 13.38 469.95 13.30 469.77 13.29ZM465.28 8.81L463.68 8.81L463.68 4.48L465.37 4.48C466.26 4.48 466.93 4.66 467.39 5.00C467.85 5.33 468.08 5.87 468.08 6.57C468.08 6.92 468.02 7.21 467.89 7.49C467.77 7.77 467.57 7.99 467.33 8.19C467.10 8.39 466.80 8.55 466.45 8.65C466.10 8.75 465.71 8.81 465.28 8.81Z"></path></g></svg>
